<?xml version="1.0" standalone="no"?><svg xmlns="http://www.w3.org/2000/svg" viewBox="0 0 1440 320"><path fill="#f3f4f5" fill-opacity="1" d="M0,64L34.3,58.7C68.6,53,137,43,206,48C274.3,53,343,75,411,117.3C480,160,549,224,617,224C685.7,224,754,160,823,138.7C891.4,117,960,139,1029,170.7C1097.1,203,1166,245,1234,229.3C1302.9,213,1371,139,1406,101.3L1440,64L1440,0L1405.7,0C1371.4,0,1303,0,1234,0C1165.7,0,1097,0,1029,0C960,0,891,0,823,0C754.3,0,686,0,617,0C548.6,0,480,0,411,0C342.9,0,274,0,206,0C137.1,0,69,0,34,0L0,0Z"></path></svg>